<svg width="40" height="40" viewBox="0 0 40 40" fill="none" xmlns="http://www.w3.org/2000/svg">
<path fill-rule="evenodd" clip-rule="evenodd" d="M1.66669 4.72984C1.66669 3.9174 1.98943 3.13822 2.56392 2.56374C3.1384 1.98925 3.91757 1.66651 4.73002 1.66651H35.2667C35.6693 1.66585 36.0681 1.74461 36.4403 1.89829C36.8124 2.05196 37.1506 2.27752 37.4354 2.56207C37.7203 2.84661 37.9462 3.18455 38.1003 3.55652C38.2544 3.9285 38.3336 4.32722 38.3334 4.72984V35.2665C38.3338 35.6692 38.2548 36.0681 38.101 36.4402C37.9471 36.8124 37.7214 37.1505 37.4367 37.4354C37.152 37.7202 36.814 37.9461 36.4419 38.1002C36.0699 38.2542 35.6711 38.3334 35.2684 38.3332H4.73002C4.3276 38.3332 3.92912 38.2539 3.55735 38.0998C3.18558 37.9458 2.84781 37.72 2.56333 37.4354C2.27885 37.1507 2.05324 36.8128 1.89939 36.441C1.74554 36.0691 1.66647 35.6706 1.66669 35.2682V4.72984ZM16.18 15.6465H21.145V18.1398C21.8617 16.7065 23.695 15.4165 26.45 15.4165C31.7317 15.4165 32.9834 18.2715 32.9834 23.5098V33.2132H27.6384V24.7032C27.6384 21.7198 26.9217 20.0365 25.1017 20.0365C22.5767 20.0365 21.5267 21.8515 21.5267 24.7032V33.2132H16.18V15.6465ZM7.01335 32.9848H12.36V15.4165H7.01335V32.9832V32.9848ZM13.125 9.68651C13.1351 10.1443 13.0536 10.5995 12.8854 11.0254C12.7172 11.4512 12.4656 11.8392 12.1454 12.1666C11.8252 12.4939 11.4429 12.754 11.0208 12.9315C10.5987 13.1091 10.1454 13.2005 9.68752 13.2005C9.22962 13.2005 8.77634 13.1091 8.35426 12.9315C7.93219 12.754 7.54983 12.4939 7.22964 12.1666C6.90944 11.8392 6.65784 11.4512 6.48962 11.0254C6.3214 10.5995 6.23994 10.1443 6.25002 9.68651C6.26981 8.78793 6.64066 7.93283 7.28316 7.30432C7.92566 6.67581 8.78873 6.32387 9.68752 6.32387C10.5863 6.32387 11.4494 6.67581 12.0919 7.30432C12.7344 7.93283 13.1052 8.78793 13.125 9.68651Z" fill="white"/>
</svg>
